# xmcd
#
# Track frame offsets:
#   150
#   14395
#   27470
#   43081
#   57508
#   75195
#   88910
#   106175
#   120252
#   134274
#   154631
#   167705
#   179839
#   194739
#   208597
#
# Disc length: 2933 seconds
#
# Revision: 0
# Processed by: cddbd v1.5.1PL2 Copyright (c) Steve Scherf et al.
# Submitted via: uFREEDB 1.6.0
#
DISCID=ca0b730f
DTITLE=Various Artist - Hot Country Hits Volume 27
DYEAR=1998
DGENRE=Country
TTITLE0=Big City
TTITLE1=I just fell in love again
TTITLE2=Funny Face
TTITLE3=Devil Woman
TTITLE4=What a difference you made in my life
TTITLE5=Here you come again
TTITLE6=Luckenbach Texas
TTITLE7=Linda on my mind
TTITLE8=Two More Bottles Of Wine
TTITLE9=Coward of the County
TTITLE10=Help me make it through the night
TTITLE11=Ring Of Fire
TTITLE12=If you've got the money Honey
TTITLE13=Every Which Way But Loose
TTITLE14=Heaven's just a sin away
EXTD=
EXTT0=
EXTT1=
EXTT2=
EXTT3=
EXTT4=
EXTT5=
EXTT6=
EXTT7=
EXTT8=
EXTT9=
EXTT10=
EXTT11=
EXTT12=
EXTT13=
EXTT14=
PLAYORDER=
